<svg width="390" height="415" viewBox="0 0 390 415" fill="none" xmlns="http://www.w3.org/2000/svg">
<path d="M390 51.5356C363.733 75.0988 314.871 76.5146 286.78 54.5088C270.84 42.0294 259.779 22.7743 238.652 18.6887C218.733 14.8255 199.855 26.4352 181.807 34.6064C157.009 45.8723 124.963 50.7872 101.728 37.519C86.5693 28.8218 77.5452 13.7535 61.9841 5.60249C42.5149 -4.51047 14.6137 -0.566402 -9.53674e-07 14.4817V419H390V51.5356Z" fill="#F8B600"/>
<g opacity="0.54">
<path d="M-0.845154 308.446C15.6395 299.187 32.157 290.047 48.4386 280.284C58.4166 274.323 53.5916 257.002 43.6703 263.092C26.8018 273.443 10.2168 284.438 -6.44878 295.293C-13.5646 299.924 -8.20079 312.59 -0.892958 308.424L-0.845154 308.446Z" fill="url(#paint0_linear_297_2143)"/>
</g>
<g opacity="0.07">
<path d="M40.8036 115.914C40.8022 117.526 40.8136 117.769 40.838 116.642C40.9339 114.928 40.8044 113.21 40.453 111.53C40.297 110.345 40.0599 109.133 39.8053 107.976C38.811 104.272 37.2461 100.745 35.167 97.5228C30.483 89.6231 23.5792 82.6811 14.0323 81.9067C11.4459 81.753 8.86558 82.2938 6.55861 83.473C4.25164 84.6522 2.30198 86.4269 0.911732 88.6132C-1.84598 93.1961 -2.79069 98.6444 -1.73693 103.888C-0.987024 107.601 0.171668 111.22 1.718 114.677C3.20803 117.98 5.10965 121.081 7.37763 123.907C8.38829 124.977 9.4582 125.99 10.5823 126.94L14.0017 129.863C15.4773 130.846 15.5305 130.773 14.0715 129.646C16.363 132.175 19.4215 133.882 22.7771 134.503C26.1327 135.125 29.5996 134.628 32.6452 133.088C38.1333 129.957 42.9664 122.554 40.6876 115.996L40.8036 115.914Z" fill="#B2EAF9"/>
</g>
<path d="M364 291.326C364.549 291.262 365.057 290.971 365.426 290.509C365.796 290.047 366 289.448 366 288.826C366 288.205 365.796 287.605 365.426 287.143C365.057 286.682 364.549 286.391 364 286.326C363.451 286.391 362.943 286.682 362.574 287.143C362.204 287.605 362 288.205 362 288.826C362 289.448 362.204 290.047 362.574 290.509C362.943 290.971 363.451 291.262 364 291.326Z" fill="#D8D6E5"/>
<path d="M321 208C321.549 207.936 322.057 207.644 322.426 207.183C322.796 206.721 323 206.122 323 205.5C323 204.878 322.796 204.279 322.426 203.817C322.057 203.356 321.549 203.064 321 203C320.451 203.064 319.943 203.356 319.574 203.817C319.204 204.279 319 204.878 319 205.5C319 206.122 319.204 206.721 319.574 207.183C319.943 207.644 320.451 207.936 321 208Z" fill="#D8D6E5"/>
<path d="M19.4453 279.322C19.7856 279.346 20.1258 279.272 20.4234 279.108C20.7366 279.014 21.0182 278.839 21.2385 278.601C21.4772 278.376 21.6627 278.103 21.7819 277.8C21.9337 277.493 22.0083 277.154 21.9993 276.813V276.172C21.8914 275.747 21.6657 275.359 21.3472 275.051C20.8599 274.603 20.2216 274.346 19.554 274.331C19.2137 274.306 18.8735 274.38 18.5759 274.544C18.2627 274.638 17.9811 274.813 17.7608 275.051C17.5221 275.276 17.3366 275.549 17.2174 275.852C17.081 276.155 17.0072 276.482 17 276.813V277.48C17.1078 277.906 17.3335 278.294 17.6521 278.601C18.1394 279.049 18.7777 279.306 19.4453 279.322Z" fill="#D8D6E5"/>
<path d="M3.987 324.115C4.03764 323.689 3.93968 323.259 3.70437 322.876C3.58611 322.708 3.41545 322.569 3.20977 322.472C2.9928 322.376 2.74995 322.326 2.5032 322.326C2.25646 322.326 2.01361 322.376 1.79663 322.472C1.5877 322.575 1.40725 322.713 1.2667 322.876C1.04351 323.262 0.957821 323.691 1.0194 324.115C1.01456 324.275 1.04962 324.434 1.12248 324.583C1.19533 324.732 1.30445 324.867 1.44321 324.98C1.58197 325.093 1.74748 325.182 1.92969 325.242C2.11191 325.301 2.30703 325.33 2.5032 325.326C2.69938 325.33 2.8945 325.301 3.07671 325.242C3.25893 325.182 3.42444 325.093 3.5632 324.98C3.70196 324.867 3.81108 324.732 3.88393 324.583C3.95678 324.434 3.99185 324.275 3.987 324.115Z" fill="#D8D6E5"/>
<path d="M22 318.05C22.0033 318.555 22.0979 319.054 22.2778 319.513C22.4155 319.739 22.5845 319.937 22.7778 320.099C23.0003 320.239 23.2475 320.316 23.5 320.326C23.7437 320.316 23.9818 320.238 24.1944 320.099C24.402 319.947 24.5814 319.748 24.7222 319.513C24.899 319.053 24.9935 318.555 25 318.05C24.9766 317.591 24.8198 317.155 24.5556 316.814C24.2718 316.496 23.8928 316.321 23.5 316.326C23.3043 316.322 23.1099 316.364 22.9281 316.448C22.7462 316.533 22.5806 316.659 22.441 316.82C22.3013 316.98 22.1904 317.172 22.1147 317.383C22.0389 317.594 22 317.821 22 318.05Z" fill="#D8D6E5"/>
<path d="M315.5 243C315.898 243 316.279 242.789 316.561 242.414C316.842 242.039 317 241.53 317 241C317 240.47 316.842 239.961 316.561 239.586C316.279 239.211 315.898 239 315.5 239C315.102 239 314.721 239.211 314.439 239.586C314.158 239.961 314 240.47 314 241C314 241.53 314.158 242.039 314.439 242.414C314.721 242.789 315.102 243 315.5 243Z" fill="#D8D6E5"/>
<path d="M337.5 234C337.642 233.973 337.769 233.909 337.86 233.818C337.951 233.728 338 233.615 338 233.5C338 233.385 337.951 233.272 337.86 233.182C337.769 233.091 337.642 233.027 337.5 233C337.358 233.027 337.231 233.091 337.14 233.182C337.049 233.272 337 233.385 337 233.5C337 233.615 337.049 233.728 337.14 233.818C337.231 233.909 337.358 233.973 337.5 234Z" fill="#D8D6E5"/>
<path d="M346 243C346.265 243 346.52 242.947 346.707 242.854C346.895 242.76 347 242.633 347 242.5C347 242.367 346.895 242.24 346.707 242.146C346.52 242.053 346.265 242 346 242C345.735 242 345.48 242.053 345.293 242.146C345.105 242.24 345 242.367 345 242.5C345 242.633 345.105 242.76 345.293 242.854C345.48 242.947 345.735 243 346 243Z" fill="#D8D6E5"/>
<g opacity="0.33">
<path d="M250.041 89.0438C256.551 100.415 269.941 108.944 279.721 117.473C289.5 126.002 298.456 137.203 311.732 138.653C317.759 139.306 322.706 132.029 320.915 126.599C316.821 114.26 303.146 107.551 293.139 100.103C283.132 92.6543 271.562 81.2542 259.024 77.3594C252.258 75.1988 246.629 83.2442 250.012 89.1006L250.041 89.0438Z" fill="url(#paint1_linear_297_2143)"/>
</g>
<defs>
<linearGradient id="paint0_linear_297_2143" x1="6.98486" y1="278.676" x2="37.1244" y2="292.455" gradientUnits="userSpaceOnUse">
<stop stop-color="#E58F7E"/>
<stop offset="0.14" stop-color="#E4857E"/>
<stop offset="0.7" stop-color="#E0637F"/>
<stop offset="1" stop-color="#DE567F"/>
</linearGradient>
<linearGradient id="paint1_linear_297_2143" x1="256.494" y1="107.835" x2="312.158" y2="107.835" gradientUnits="userSpaceOnUse">
<stop offset="0.05" stop-color="#6BC1CD"/>
<stop offset="1" stop-color="#A8EBA4"/>
</linearGradient>
</defs>
</svg>
