<svg width="45" height="45" viewBox="0 0 45 45" fill="none" xmlns="http://www.w3.org/2000/svg">
<path d="M12.6751 41.2488H32.3251C37.5001 41.2488 39.5626 38.08 39.8063 34.2175L40.7813 18.73C40.8421 17.7697 40.7052 16.8071 40.3793 15.9018C40.0533 14.9965 39.5451 14.1676 38.8861 13.4664C38.2271 12.7653 37.4314 12.2067 36.548 11.8253C35.6645 11.4438 34.7123 11.2476 33.7501 11.2488C32.6063 11.2488 31.5563 10.5925 31.0313 9.58003L29.6813 6.86128C28.8188 5.15503 26.5688 3.74878 24.6563 3.74878H20.3626C18.4313 3.74878 16.1813 5.15503 15.3188 6.86128L13.9688 9.58003C13.4438 10.5925 12.3938 11.2488 11.2501 11.2488C7.18132 11.2488 3.95632 14.68 4.21882 18.73L5.19382 34.2175C5.41882 38.08 7.50007 41.2488 12.6751 41.2488Z" fill="#F8B600"/>
<path d="M25.3125 16.4047H19.6875C18.9187 16.4047 18.2812 15.7672 18.2812 14.9984C18.2812 14.2297 18.9187 13.5922 19.6875 13.5922H25.3125C26.0812 13.5922 26.7187 14.2297 26.7187 14.9984C26.7187 15.7672 26.0812 16.4047 25.3125 16.4047Z" fill="black"/>
<circle opacity="0.4" cx="22.5" cy="26.5" r="7.5" fill="black"/>
</svg>
