<svg width="44" height="44" viewBox="0 0 44 44" fill="none" xmlns="http://www.w3.org/2000/svg">
<rect width="44" height="44" rx="10" fill="#F8B600"/>
<path opacity="0.4" d="M32.019 26.82L28.889 19.5C28.319 18.16 27.469 17.4 26.499 17.35C25.539 17.3 24.609 17.97 23.899 19.25L21.999 22.66C21.599 23.38 21.029 23.81 20.409 23.86C19.779 23.92 19.149 23.59 18.639 22.94L18.419 22.66C17.709 21.77 16.829 21.34 15.929 21.43C15.029 21.52 14.259 22.14 13.749 23.15L12.019 26.6C11.399 27.85 11.459 29.3 12.189 30.48C12.919 31.66 14.189 32.37 15.579 32.37H28.339C29.679 32.37 30.929 31.7 31.669 30.58C32.429 29.46 32.549 28.05 32.019 26.82Z" fill="black"/>
<path d="M16.97 18.381C17.8664 18.381 18.7261 18.0249 19.36 17.391C19.9939 16.7571 20.35 15.8974 20.35 15.001C20.35 14.1045 19.9939 13.2448 19.36 12.611C18.7261 11.9771 17.8664 11.621 16.97 11.621C16.0736 11.621 15.2138 11.9771 14.58 12.611C13.9461 13.2448 13.59 14.1045 13.59 15.001C13.59 15.8974 13.9461 16.7571 14.58 17.391C15.2138 18.0249 16.0736 18.381 16.97 18.381Z" fill="black"/>
</svg>
