<svg width="21" height="20" viewBox="0 0 21 20" fill="none" xmlns="http://www.w3.org/2000/svg">
<path d="M18.0402 4.82006L12.2802 0.79006C10.7102 -0.30994 8.30023 -0.24994 6.79023 0.92006L1.78023 4.83006C0.780234 5.61006 -0.00976562 7.21006 -0.00976562 8.47006V15.3701C-0.00976562 17.9201 2.06023 20.0001 4.61023 20.0001H15.3902C17.9402 20.0001 20.0102 17.9301 20.0102 15.3801V8.60006C20.0102 7.25006 19.1402 5.59006 18.0402 4.82006ZM10.7502 16.0001C10.7502 16.4101 10.4102 16.7501 10.0002 16.7501C9.59023 16.7501 9.25023 16.4101 9.25023 16.0001V13.0001C9.25023 12.5901 9.59023 12.2501 10.0002 12.2501C10.4102 12.2501 10.7502 12.5901 10.7502 13.0001V16.0001Z" fill="#F8B600"/>
</svg>
