<svg width="8" height="8" viewBox="0 0 8 8" fill="none" xmlns="http://www.w3.org/2000/svg">
<path fill-rule="evenodd" clip-rule="evenodd" d="M5.00386 0.0167526C5.16228 0.0535627 5.295 0.148121 5.3683 0.276395C5.64462 0.759956 5.85085 1.05344 6.05832 1.2914C6.26834 1.53226 6.49049 1.72944 6.82843 2.02514C7.60936 2.70846 8 3.60506 8 4.50001C8 5.39496 7.60936 6.29156 6.82843 6.97488C5.26633 8.34171 2.73367 8.34171 1.17157 6.97488C0.390637 6.29156 1.34461e-06 5.39496 0 4.50001C-1.68996e-06 3.60506 0.390635 2.70846 1.17157 2.02514C1.335 1.88214 1.58078 1.83936 1.79431 1.91675C2.00784 1.99414 2.14706 2.17646 2.14706 2.37869C2.14706 2.9386 2.18702 3.36522 2.37418 3.70551C2.47709 3.89263 2.63763 4.07557 2.91431 4.23881C2.98039 3.70843 3.10144 3.06224 3.265 2.44888C3.39378 1.96597 3.55394 1.48386 3.74457 1.08183C3.83992 0.880741 3.94774 0.689269 4.0702 0.523952C4.1894 0.363037 4.34254 0.19929 4.54022 0.0839772C4.6766 0.00442474 4.84545 -0.0200575 5.00386 0.0167526ZM5.21218 6.56065C4.54271 7.14644 3.45729 7.14644 2.78782 6.56065C2.45308 6.26776 2.28571 5.88388 2.28571 5.5C2.28571 5.5 2.78782 5.74999 3.71431 5.74999C3.71431 5.24999 4.00003 3.74999 4.4286 3.49999C4.71431 3.99999 4.87745 4.14644 5.21218 4.43934C5.54692 4.73223 5.71429 5.11611 5.71429 5.5C5.71428 5.88388 5.54692 6.26776 5.21218 6.56065Z" fill="#F8B600"/>
</svg>
