<svg width="19" height="22" viewBox="0 0 19 22" fill="none" xmlns="http://www.w3.org/2000/svg">
<path d="M9.49989 15.9042C10.2126 15.9042 10.7903 15.2352 10.7903 14.41C10.7903 13.5848 10.2126 12.9158 9.49989 12.9158C8.78721 12.9158 8.20947 13.5848 8.20947 14.41C8.20947 15.2352 8.78721 15.9042 9.49989 15.9042Z" fill="white"/>
<path d="M14.4718 8.73584V7.59001C14.4718 5.11501 13.9572 1.83334 9.50016 1.83334C5.04308 1.83334 4.5285 5.11501 4.5285 7.59001V8.73584C2.31183 9.05668 1.5835 10.3583 1.5835 13.5575V15.2625C1.5835 19.0208 2.57308 20.1667 5.81891 20.1667H13.1814C16.4272 20.1667 17.4168 19.0208 17.4168 15.2625V13.5575C17.4168 10.3583 16.6885 9.05668 14.4718 8.73584ZM9.50016 17.1783C8.17808 17.1783 7.10933 15.9317 7.10933 14.41C7.10933 12.8792 8.186 11.6417 9.50016 11.6417C10.8143 11.6417 11.891 12.8883 11.891 14.41C11.891 15.9408 10.8222 17.1783 9.50016 17.1783ZM5.81891 8.65334C5.75558 8.65334 5.70016 8.65334 5.63683 8.65334V7.59001C5.63683 4.90418 6.29391 3.11668 9.50016 3.11668C12.7064 3.11668 13.3635 4.90418 13.3635 7.59001V8.66251C13.3002 8.66251 13.2447 8.66251 13.1814 8.66251H5.81891V8.65334Z" fill="white"/>
</svg>
