<svg width="16" height="15" viewBox="0 0 16 15" fill="none" xmlns="http://www.w3.org/2000/svg">
<path d="M5.66159 8.33871C5.80377 8.08634 5.88379 7.80148 5.88379 7.5C5.88379 7.19852 5.80377 6.91366 5.66159 6.66129M5.66159 8.33871C5.3154 8.95318 4.60067 9.375 3.77515 9.375C2.61058 9.375 1.6665 8.53553 1.6665 7.5C1.6665 6.46447 2.61058 5.625 3.77515 5.625C4.60067 5.625 5.3154 6.04682 5.66159 6.66129M5.66159 8.33871L10.3233 10.4113M5.66159 6.66129L10.3233 4.58871M10.3233 4.58871C10.6695 5.20318 11.3842 5.625 12.2097 5.625C13.3743 5.625 14.3184 4.78553 14.3184 3.75C14.3184 2.71447 13.3743 1.875 12.2097 1.875C11.0452 1.875 10.1011 2.71447 10.1011 3.75C10.1011 4.05148 10.1811 4.33634 10.3233 4.58871ZM10.3233 10.4113C10.1811 10.6637 10.1011 10.9485 10.1011 11.25C10.1011 12.2855 11.0452 13.125 12.2097 13.125C13.3743 13.125 14.3184 12.2855 14.3184 11.25C14.3184 10.2145 13.3743 9.375 12.2097 9.375C11.3842 9.375 10.6695 9.79682 10.3233 10.4113Z" stroke="#F8B600" stroke-width="2" stroke-linecap="round" stroke-linejoin="round"/>
</svg>
