<svg width="8" height="8" viewBox="0 0 8 8" fill="none" xmlns="http://www.w3.org/2000/svg">
<path d="M4.00008 0.666626C2.16341 0.666626 0.666748 2.16329 0.666748 3.99996C0.666748 5.83663 2.16341 7.33329 4.00008 7.33329C5.83675 7.33329 7.33341 5.83663 7.33341 3.99996C7.33341 2.16329 5.83675 0.666626 4.00008 0.666626ZM5.45008 5.18996C5.40341 5.26996 5.32008 5.31329 5.23341 5.31329C5.19008 5.31329 5.14675 5.30329 5.10675 5.27663L4.07341 4.65996C3.81675 4.50663 3.62675 4.16996 3.62675 3.87329V2.50663C3.62675 2.36996 3.74008 2.25663 3.87675 2.25663C4.01341 2.25663 4.12675 2.36996 4.12675 2.50663V3.87329C4.12675 3.99329 4.22675 4.16996 4.33008 4.22996L5.36341 4.84663C5.48341 4.91663 5.52341 5.06996 5.45008 5.18996Z" fill="#F8B600"/>
</svg>
